REM DIRINDEX 1\2,1\3,1\4
REM DIRNAME folder01,folder02,folder03,folder04
TITLE ""
FILE "DISC2Track16.mp3" MP3
  TRACK 01 AUDIO
    TITLE "0:"
    INDEX 01 00:00:00
  TRACK 02 AUDIO
    TITLE "4:cjc105_2655"
    INDEX 01 00:00:15
  TRACK 03 AUDIO
    TITLE "0:"
    INDEX 01 00:03:04
  TRACK 04 AUDIO
    TITLE "2:cjc105_2656"
    INDEX 01 00:03:51
  TRACK 05 AUDIO
    TITLE "3:cjc105_2657"
    INDEX 01 00:05:09
  TRACK 06 AUDIO
    TITLE "0:"
    INDEX 01 00:06:49
  TRACK 07 AUDIO
    TITLE "2:cjc105_2658"
    INDEX 01 00:06:61
  TRACK 08 AUDIO
    TITLE "3:cjc105_2659"
    INDEX 01 00:08:46
  TRACK 09 AUDIO
    TITLE "0:"
    INDEX 01 00:09:63
  TRACK 10 AUDIO
    TITLE "2:cjc105_2660"
    INDEX 01 00:10:08
  TRACK 11 AUDIO
    TITLE "3:cjc105_2661"
    INDEX 01 00:11:40
  TRACK 12 AUDIO
    TITLE "0:"
    INDEX 01 00:12:58
  TRACK 13 AUDIO
    TITLE "2:cjc105_2662"
    INDEX 01 00:12:73
  TRACK 14 AUDIO
    TITLE "3:cjc105_2663"
    INDEX 01 00:14:04
  TRACK 15 AUDIO
    TITLE "0:"
    INDEX 01 00:15:30
  TRACK 16 AUDIO
    TITLE "2:cjc105_2664"
    INDEX 01 00:15:42
  TRACK 17 AUDIO
    TITLE "3:cjc105_2665"
    INDEX 01 00:16:67
  TRACK 18 AUDIO
    TITLE "0:"
    INDEX 01 00:18:11
  TRACK 19 AUDIO
    TITLE "2:cjc105_2666"
    INDEX 01 00:18:23
  TRACK 20 AUDIO
    TITLE "3:cjc105_2667"
    INDEX 01 00:19:60
  TRACK 21 AUDIO
    TITLE "0:"
    INDEX 01 00:21:41
  TRACK 22 AUDIO
    TITLE "2:cjc105_2668"
    INDEX 01 00:21:55
  TRACK 23 AUDIO
    TITLE "3:cjc105_2669"
    INDEX 01 00:23:12
  TRACK 24 AUDIO
    TITLE "0:"
    INDEX 01 00:24:37
  TRACK 25 AUDIO
    TITLE "2:cjc105_2670"
    INDEX 01 00:24:55
  TRACK 26 AUDIO
    TITLE "3:cjc105_2671"
    INDEX 01 00:26:20
  TRACK 27 AUDIO
    TITLE "0:"
    INDEX 01 00:27:67
  TRACK 28 AUDIO
    TITLE "2:cjc105_2672"
    INDEX 01 00:28:04
  TRACK 29 AUDIO
    TITLE "3:cjc105_2673"
    INDEX 01 00:28:72
  TRACK 30 AUDIO
    TITLE "0:"
    INDEX 01 00:30:03
  TRACK 31 AUDIO
    TITLE "2:cjc105_2674"
    INDEX 01 00:30:32
  TRACK 32 AUDIO
    TITLE "3:cjc105_2675"
    INDEX 01 00:31:53
  TRACK 33 AUDIO
    TITLE "0:"
    INDEX 01 00:33:09
  TRACK 34 AUDIO
    TITLE "2:cjc105_2676"
    INDEX 01 00:33:24
  TRACK 35 AUDIO
    TITLE "3:cjc105_2677"
    INDEX 01 00:34:53
  TRACK 36 AUDIO
    TITLE "0:"
    INDEX 01 00:36:05
  TRACK 37 AUDIO
    TITLE "2:cjc105_2678"
    INDEX 01 00:36:15
  TRACK 38 AUDIO
    TITLE "3:cjc105_2679"
    INDEX 01 00:37:67
  TRACK 39 AUDIO
    TITLE "0:"
    INDEX 01 00:39:35
  TRACK 40 AUDIO
    TITLE "2:cjc105_2680"
    INDEX 01 00:39:49
  TRACK 41 AUDIO
    TITLE "3:cjc105_2681"
    INDEX 01 00:41:16
  TRACK 42 AUDIO
    TITLE "0:"
    INDEX 01 00:42:61
  TRACK 43 AUDIO
    TITLE "2:cjc105_2682"
    INDEX 01 00:42:72
  TRACK 44 AUDIO
    TITLE "3:cjc105_2683"
    INDEX 01 00:44:07
  TRACK 45 AUDIO
    TITLE "0:"
    INDEX 01 00:45:18
  TRACK 46 AUDIO
    TITLE "2:cjc105_2684"
    INDEX 01 00:45:32
  TRACK 47 AUDIO
    TITLE "3:cjc105_2685"
    INDEX 01 00:46:41
  TRACK 48 AUDIO
    TITLE "0:"
    INDEX 01 00:47:48
  TRACK 49 AUDIO
    TITLE "2:cjc105_2686"
    INDEX 01 00:47:60
  TRACK 50 AUDIO
    TITLE "3:cjc105_2687"
    INDEX 01 00:49:27
  TRACK 51 AUDIO
    TITLE "0:"
    INDEX 01 00:51:28
  TRACK 52 AUDIO
    TITLE "2:cjc105_2688"
    INDEX 01 00:51:42
  TRACK 53 AUDIO
    TITLE "3:cjc105_2689"
    INDEX 01 00:53:09
  TRACK 54 AUDIO
    TITLE "0:"
    INDEX 01 00:54:44
  TRACK 55 AUDIO
    TITLE "2:cjc105_2690"
    INDEX 01 00:54:56
  TRACK 56 AUDIO
    TITLE "3:cjc105_2691"
    INDEX 01 00:56:35
  TRACK 57 AUDIO
    TITLE "0:"
    INDEX 01 00:57:56
  TRACK 58 AUDIO
    TITLE "2:cjc105_2692"
    INDEX 01 00:57:72
  TRACK 59 AUDIO
    TITLE "3:cjc105_2693"
    INDEX 01 00:59:59
  TRACK 60 AUDIO
    TITLE "0:"
    INDEX 01 01:00:70
  TRACK 61 AUDIO
    TITLE "2:cjc105_2694"
    INDEX 01 01:01:09
  TRACK 62 AUDIO
    TITLE "3:cjc105_2695"
    INDEX 01 01:02:16
  TRACK 63 AUDIO
    TITLE "0:"
    INDEX 01 01:03:29
  TRACK 64 AUDIO
    TITLE "2:cjc105_2696"
    INDEX 01 01:03:53
  TRACK 65 AUDIO
    TITLE "3:cjc105_2697"
    INDEX 01 01:05:19
  TRACK 66 AUDIO
    TITLE "0:"
    INDEX 01 01:06:57
  TRACK 67 AUDIO
    TITLE "2:cjc105_2698"
    INDEX 01 01:06:69
  TRACK 68 AUDIO
    TITLE "3:cjc105_2699"
    INDEX 01 01:08:54
  TRACK 69 AUDIO
    TITLE "0:"
    INDEX 01 01:10:18
  TRACK 70 AUDIO
    TITLE "2:cjc105_2700"
    INDEX 01 01:10:33
  TRACK 71 AUDIO
    TITLE "3:cjc105_2701"
    INDEX 01 01:12:19
  TRACK 72 AUDIO
    TITLE "0:"
    INDEX 01 01:14:25
  TRACK 73 AUDIO
    TITLE "2:cjc105_2702"
    INDEX 01 01:14:39
  TRACK 74 AUDIO
    TITLE "3:cjc105_2703"
    INDEX 01 01:16:01
  TRACK 75 AUDIO
    TITLE "0:"
    INDEX 01 01:17:35
  TRACK 76 AUDIO
    TITLE "2:cjc105_2704"
    INDEX 01 01:17:49
  TRACK 77 AUDIO
    TITLE "3:cjc105_2705"
    INDEX 01 01:18:64
  TRACK 78 AUDIO
    TITLE "0:"
    INDEX 01 01:20:00
  TRACK 79 AUDIO
    TITLE "2:cjc105_2706"
    INDEX 01 01:20:14
  TRACK 80 AUDIO
    TITLE "3:cjc105_2707"
    INDEX 01 01:21:61
  TRACK 81 AUDIO
    TITLE "0:"
    INDEX 01 01:22:74
  TRACK 82 AUDIO
    TITLE "2:cjc105_2708"
    INDEX 01 01:23:13
  TRACK 83 AUDIO
    TITLE "3:cjc105_2709"
    INDEX 01 01:24:32
  TRACK 84 AUDIO
    TITLE "0:"
    INDEX 01 01:25:53
  TRACK 85 AUDIO
    TITLE "2:cjc105_2710"
    INDEX 01 01:25:74
  TRACK 86 AUDIO
    TITLE "3:cjc105_2711"
    INDEX 01 01:27:06
  TRACK 87 AUDIO
    TITLE "0:"
    INDEX 01 01:28:18
  TRACK 88 AUDIO
    TITLE "2:cjc105_2712"
    INDEX 01 01:28:31
  TRACK 89 AUDIO
    TITLE "3:cjc105_2713"
    INDEX 01 01:29:41
  TRACK 90 AUDIO
    TITLE "0:"
    INDEX 01 01:30:48
